<mxfile host="app.diagrams.net" agent="Mozilla/5.0 (Windows NT 10.0; Win64; x64) AppleWebKit/537.36 (KHTML, like Gecko) Chrome/130.0.0.0 Safari/537.36" version="24.8.3">
  <diagram name="Page-1" id="cEM5BRdCqc2xNv3gya1t">
    <mxGraphModel dx="712" dy="823" grid="1" gridSize="10" guides="1" tooltips="1" connect="1" arrows="1" fold="1" page="1" pageScale="1" pageWidth="827" pageHeight="1169" math="0" shadow="0">
      <root>
        <mxCell id="0" />
        <mxCell id="1" parent="0" />
        <mxCell id="9Oe2gQKXiKdslmp9MZ7A-5" value="" style="edgeStyle=orthogonalEdgeStyle;rounded=0;orthogonalLoop=1;jettySize=auto;html=1;" edge="1" parent="1" source="9Oe2gQKXiKdslmp9MZ7A-1" target="9Oe2gQKXiKdslmp9MZ7A-4">
          <mxGeometry relative="1" as="geometry" />
        </mxCell>
        <mxCell id="9Oe2gQKXiKdslmp9MZ7A-1" value="Start" style="ellipse;whiteSpace=wrap;html=1;" vertex="1" parent="1">
          <mxGeometry x="340" width="120" height="80" as="geometry" />
        </mxCell>
        <mxCell id="9Oe2gQKXiKdslmp9MZ7A-7" value="" style="edgeStyle=orthogonalEdgeStyle;rounded=0;orthogonalLoop=1;jettySize=auto;html=1;" edge="1" parent="1" source="9Oe2gQKXiKdslmp9MZ7A-4" target="9Oe2gQKXiKdslmp9MZ7A-6">
          <mxGeometry relative="1" as="geometry" />
        </mxCell>
        <mxCell id="9Oe2gQKXiKdslmp9MZ7A-4" value="&lt;font style=&quot;font-size: 14px;&quot;&gt;&lt;b&gt;Sum&lt;/b&gt;&lt;/font&gt;&lt;div&gt;&lt;font style=&quot;font-size: 14px;&quot;&gt;&lt;b&gt;(3, 1, 2, 3)&lt;/b&gt;&lt;/font&gt;&lt;/div&gt;" style="shape=process;whiteSpace=wrap;html=1;backgroundOutline=1;" vertex="1" parent="1">
          <mxGeometry x="314.38" y="120" width="171.24" height="50" as="geometry" />
        </mxCell>
        <mxCell id="9Oe2gQKXiKdslmp9MZ7A-9" style="edgeStyle=orthogonalEdgeStyle;rounded=0;orthogonalLoop=1;jettySize=auto;html=1;entryX=0.5;entryY=0;entryDx=0;entryDy=0;" edge="1" parent="1" source="9Oe2gQKXiKdslmp9MZ7A-6" target="9Oe2gQKXiKdslmp9MZ7A-8">
          <mxGeometry relative="1" as="geometry" />
        </mxCell>
        <mxCell id="9Oe2gQKXiKdslmp9MZ7A-6" value="Sum of 3 numbers" style="shape=parallelogram;perimeter=parallelogramPerimeter;whiteSpace=wrap;html=1;fixedSize=1;" vertex="1" parent="1">
          <mxGeometry x="335" y="200" width="130" height="60" as="geometry" />
        </mxCell>
        <mxCell id="9Oe2gQKXiKdslmp9MZ7A-11" value="" style="edgeStyle=orthogonalEdgeStyle;rounded=0;orthogonalLoop=1;jettySize=auto;html=1;" edge="1" parent="1" source="9Oe2gQKXiKdslmp9MZ7A-8" target="9Oe2gQKXiKdslmp9MZ7A-10">
          <mxGeometry relative="1" as="geometry" />
        </mxCell>
        <mxCell id="9Oe2gQKXiKdslmp9MZ7A-8" value="&lt;font style=&quot;font-size: 14px;&quot;&gt;&lt;b&gt;Sum&amp;nbsp;&lt;/b&gt;&lt;/font&gt;&lt;div&gt;&lt;b style=&quot;font-size: 14px; background-color: initial;&quot;&gt;(7, 1, 2, 3, 4, 5, 6, 7)&lt;/b&gt;&lt;/div&gt;" style="shape=process;whiteSpace=wrap;html=1;backgroundOutline=1;" vertex="1" parent="1">
          <mxGeometry x="314.38" y="290" width="171.25" height="50" as="geometry" />
        </mxCell>
        <mxCell id="9Oe2gQKXiKdslmp9MZ7A-13" style="edgeStyle=orthogonalEdgeStyle;rounded=0;orthogonalLoop=1;jettySize=auto;html=1;" edge="1" parent="1" source="9Oe2gQKXiKdslmp9MZ7A-10" target="9Oe2gQKXiKdslmp9MZ7A-12">
          <mxGeometry relative="1" as="geometry" />
        </mxCell>
        <mxCell id="9Oe2gQKXiKdslmp9MZ7A-10" value="Sum of 7 number" style="shape=parallelogram;perimeter=parallelogramPerimeter;whiteSpace=wrap;html=1;fixedSize=1;" vertex="1" parent="1">
          <mxGeometry x="334.99" y="380" width="130.01" height="60" as="geometry" />
        </mxCell>
        <mxCell id="9Oe2gQKXiKdslmp9MZ7A-15" value="" style="edgeStyle=orthogonalEdgeStyle;rounded=0;orthogonalLoop=1;jettySize=auto;html=1;" edge="1" parent="1" source="9Oe2gQKXiKdslmp9MZ7A-12" target="9Oe2gQKXiKdslmp9MZ7A-14">
          <mxGeometry relative="1" as="geometry" />
        </mxCell>
        <mxCell id="9Oe2gQKXiKdslmp9MZ7A-12" value="&lt;font style=&quot;font-size: 14px;&quot;&gt;&lt;b&gt;Sum&amp;nbsp;&lt;/b&gt;&lt;/font&gt;&lt;div&gt;&lt;b style=&quot;font-size: 14px; background-color: initial;&quot;&gt;(11, 1, 2, 3, 4, 5, 6, 7, 8, 9, 10, 11)&lt;/b&gt;&lt;/div&gt;" style="shape=process;whiteSpace=wrap;html=1;backgroundOutline=1;" vertex="1" parent="1">
          <mxGeometry x="314.37" y="470" width="171.25" height="50" as="geometry" />
        </mxCell>
        <mxCell id="9Oe2gQKXiKdslmp9MZ7A-14" value="End" style="ellipse;whiteSpace=wrap;html=1;" vertex="1" parent="1">
          <mxGeometry x="344.99" y="552" width="110.01" height="65" as="geometry" />
        </mxCell>
        <mxCell id="9Oe2gQKXiKdslmp9MZ7A-18" value="" style="edgeStyle=orthogonalEdgeStyle;rounded=0;orthogonalLoop=1;jettySize=auto;html=1;" edge="1" parent="1" source="9Oe2gQKXiKdslmp9MZ7A-16" target="9Oe2gQKXiKdslmp9MZ7A-17">
          <mxGeometry relative="1" as="geometry" />
        </mxCell>
        <mxCell id="9Oe2gQKXiKdslmp9MZ7A-16" value="&lt;font style=&quot;font-size: 18px;&quot;&gt;&lt;b&gt;Sum&lt;/b&gt;&lt;/font&gt;" style="ellipse;whiteSpace=wrap;html=1;" vertex="1" parent="1">
          <mxGeometry x="620" width="120" height="80" as="geometry" />
        </mxCell>
        <mxCell id="9Oe2gQKXiKdslmp9MZ7A-20" value="" style="edgeStyle=orthogonalEdgeStyle;rounded=0;orthogonalLoop=1;jettySize=auto;html=1;" edge="1" parent="1" source="9Oe2gQKXiKdslmp9MZ7A-17" target="9Oe2gQKXiKdslmp9MZ7A-19">
          <mxGeometry relative="1" as="geometry" />
        </mxCell>
        <mxCell id="9Oe2gQKXiKdslmp9MZ7A-17" value="int sum = 0;&amp;nbsp;&lt;div&gt;va_list list; va_start(list,count);&lt;/div&gt;" style="whiteSpace=wrap;html=1;" vertex="1" parent="1">
          <mxGeometry x="620" y="120" width="120" height="60" as="geometry" />
        </mxCell>
        <mxCell id="9Oe2gQKXiKdslmp9MZ7A-22" value="" style="edgeStyle=orthogonalEdgeStyle;rounded=0;orthogonalLoop=1;jettySize=auto;html=1;" edge="1" parent="1" source="9Oe2gQKXiKdslmp9MZ7A-19" target="9Oe2gQKXiKdslmp9MZ7A-21">
          <mxGeometry relative="1" as="geometry" />
        </mxCell>
        <mxCell id="9Oe2gQKXiKdslmp9MZ7A-30" value="True" style="edgeLabel;html=1;align=center;verticalAlign=middle;resizable=0;points=[];" vertex="1" connectable="0" parent="9Oe2gQKXiKdslmp9MZ7A-22">
          <mxGeometry x="-0.4667" y="-3" relative="1" as="geometry">
            <mxPoint as="offset" />
          </mxGeometry>
        </mxCell>
        <mxCell id="9Oe2gQKXiKdslmp9MZ7A-26" style="edgeStyle=orthogonalEdgeStyle;rounded=0;orthogonalLoop=1;jettySize=auto;html=1;entryX=0;entryY=0.5;entryDx=0;entryDy=0;" edge="1" parent="1" source="9Oe2gQKXiKdslmp9MZ7A-19" target="9Oe2gQKXiKdslmp9MZ7A-24">
          <mxGeometry relative="1" as="geometry">
            <Array as="points">
              <mxPoint x="560" y="230" />
              <mxPoint x="560" y="460" />
            </Array>
          </mxGeometry>
        </mxCell>
        <mxCell id="9Oe2gQKXiKdslmp9MZ7A-31" value="False" style="edgeLabel;html=1;align=center;verticalAlign=middle;resizable=0;points=[];" vertex="1" connectable="0" parent="9Oe2gQKXiKdslmp9MZ7A-26">
          <mxGeometry x="-0.3419" relative="1" as="geometry">
            <mxPoint as="offset" />
          </mxGeometry>
        </mxCell>
        <mxCell id="9Oe2gQKXiKdslmp9MZ7A-19" value="int arg = 0; arg &amp;lt; count; arg++" style="rhombus;whiteSpace=wrap;html=1;" vertex="1" parent="1">
          <mxGeometry x="580" y="205" width="200" height="50" as="geometry" />
        </mxCell>
        <mxCell id="9Oe2gQKXiKdslmp9MZ7A-23" style="edgeStyle=orthogonalEdgeStyle;rounded=0;orthogonalLoop=1;jettySize=auto;html=1;entryX=1;entryY=0.5;entryDx=0;entryDy=0;" edge="1" parent="1" source="9Oe2gQKXiKdslmp9MZ7A-21" target="9Oe2gQKXiKdslmp9MZ7A-19">
          <mxGeometry relative="1" as="geometry">
            <Array as="points">
              <mxPoint x="800" y="320" />
              <mxPoint x="800" y="230" />
            </Array>
          </mxGeometry>
        </mxCell>
        <mxCell id="9Oe2gQKXiKdslmp9MZ7A-25" value="" style="edgeStyle=orthogonalEdgeStyle;rounded=0;orthogonalLoop=1;jettySize=auto;html=1;" edge="1" parent="1" source="9Oe2gQKXiKdslmp9MZ7A-21" target="9Oe2gQKXiKdslmp9MZ7A-24">
          <mxGeometry relative="1" as="geometry" />
        </mxCell>
        <mxCell id="9Oe2gQKXiKdslmp9MZ7A-21" value="sum += va_arg(list, int);" style="whiteSpace=wrap;html=1;" vertex="1" parent="1">
          <mxGeometry x="605" y="290" width="150" height="60" as="geometry" />
        </mxCell>
        <mxCell id="9Oe2gQKXiKdslmp9MZ7A-28" value="" style="edgeStyle=orthogonalEdgeStyle;rounded=0;orthogonalLoop=1;jettySize=auto;html=1;entryX=0.5;entryY=0;entryDx=0;entryDy=0;" edge="1" parent="1" source="9Oe2gQKXiKdslmp9MZ7A-24" target="9Oe2gQKXiKdslmp9MZ7A-29">
          <mxGeometry relative="1" as="geometry">
            <mxPoint x="680" y="525" as="targetPoint" />
          </mxGeometry>
        </mxCell>
        <mxCell id="9Oe2gQKXiKdslmp9MZ7A-24" value="va_end(list);" style="whiteSpace=wrap;html=1;" vertex="1" parent="1">
          <mxGeometry x="620" y="430" width="120" height="60" as="geometry" />
        </mxCell>
        <mxCell id="9Oe2gQKXiKdslmp9MZ7A-29" value="return sum;" style="ellipse;whiteSpace=wrap;html=1;" vertex="1" parent="1">
          <mxGeometry x="620" y="520" width="120" height="80" as="geometry" />
        </mxCell>
      </root>
    </mxGraphModel>
  </diagram>
</mxfile>
